HIERARCHY
ROOT Hips
{
	OFFSET	0.00	0.00	0.00
	CHANNELS 6 Xposition Yposition Zposition Zrotation Xrotation Yrotation
	JOINT Spine
	{
		OFFSET	 0.00	0.01	 0.00
		CHANNELS 3 Zrotation Xrotation Yrotation
		JOINT Spine1
		{
			OFFSET	 0.00	 2.45913012437421	 0.00
			CHANNELS 3 Zrotation Xrotation Yrotation
            JOINT Neck
            {
                OFFSET	 0.00	 2.48462964506057	 0.00
                CHANNELS 3 Zrotation Xrotation Yrotation
                JOINT Head
                {
                    OFFSET	 0.00	 0.927524780924562	 0.00
                    CHANNELS 3 Zrotation Xrotation Yrotation
                    End Site 
                    {
                        OFFSET	 0.00	 1.14999962169752	 0.00
                    }
                }
            }
			JOINT LeftShoulder
			{
				OFFSET	 0.00	 2.48462964506057	 0.00
				CHANNELS 3 Zrotation Xrotation Yrotation
				JOINT LeftUpArm
				{
					OFFSET	 0.00	 1.24881979654096	 0.00
					CHANNELS 3 Zrotation Xrotation Yrotation
					JOINT LeftForeArm
					{
						OFFSET	 0.00	2.59758046908119	 0.00
						CHANNELS 3 Zrotation Xrotation Yrotation
						JOINT LeftHand
						{
							OFFSET	 0.00	2.45542024364365	 0.00
							CHANNELS 3 Zrotation Xrotation Yrotation
							JOINT LeftHandThumb 
							{
								OFFSET	 0.00	0.00	 0.00
								CHANNELS 3 Zrotation Xrotation Yrotation
								End Site
								{
									OFFSET	 0.00	0.00	1.00000003353624
								}
							}
							JOINT L_Wrist_End 
							{
								OFFSET	 0.00	0.99999967115358	 0.00
								CHANNELS 3 Zrotation Xrotation Yrotation
								End Site 
								{
									OFFSET	 0.00	 0.00	 0.00
								}
							}
						}
					}
				}
			}
			JOINT RightShoulder
			{
				OFFSET	 0.00	 2.48462964506057	 0.00
				CHANNELS 3 Zrotation Xrotation Yrotation
				JOINT RightUpArm
				{
					OFFSET	 0.00	 1.24881979654096	 0.00
					CHANNELS 3 Zrotation Xrotation Yrotation
					JOINT RightForeArm
					{
						OFFSET	 0.00	2.59758046908119	 0.00
						CHANNELS 3 Zrotation Xrotation Yrotation
						JOINT RightHand
						{
							OFFSET	 0.00	2.45542024364365	 0.00
							CHANNELS 3 Zrotation Xrotation Yrotation
							JOINT RightHandThumb 
							{
								OFFSET	 0.00	0.00	 0.00
								CHANNELS 3 Zrotation Xrotation Yrotation
								End Site
								{
									OFFSET	 0.00	0.00	1.00000003353624
								}
							}
							JOINT R_Wrist_End 
							{
								OFFSET	 0.00	0.99999967115358	 0.00
								CHANNELS 3 Zrotation Xrotation Yrotation
								End Site 
								{
									OFFSET	 0.00	 0.00	 0.00
								}
							}
						}
					}
				}
			}
		}
	}
	JOINT LeftUpLeg
	{
		OFFSET	 1.2719394002717	 0.00	 0.00
		CHANNELS 3 Zrotation Xrotation Yrotation
		JOINT LeftLowLeg
		{
			OFFSET	 0.00	-4.3429100912261	 0.00
			CHANNELS 3 Zrotation Xrotation Yrotation
			JOINT LeftFoot
			{
				OFFSET	 0.00	-4.48767017425826	 0.00
				CHANNELS 3 Zrotation Xrotation Yrotation
				JOINT LeftToeBase
                {
                    OFFSET	 0.00	0.00	 1.51507020887566
                    CHANNELS 3 Zrotation Xrotation Yrotation
                    End Site 
                    {
                        OFFSET	 0.00	0.00	 0.75000010571191
                    }
                }
			}
		}
	}
	JOINT RightUpLeg
	{
		OFFSET	 -1.2719393604653	 0.00	 0.00
		CHANNELS 3 Zrotation Xrotation Yrotation
		JOINT RightLowLeg
		{
			OFFSET	 0.00	-4.3429100912261	 0.00
			CHANNELS 3 Zrotation Xrotation Yrotation
			JOINT RightFoot
			{
				OFFSET	 0.00	-4.48767017425826	 0.00
				CHANNELS 3 Zrotation Xrotation Yrotation
				JOINT RightToeBase
                {
                    OFFSET	 0.00	0.00	 1.51507020887566
                    CHANNELS 3 Zrotation Xrotation Yrotation
                    End Site 
                    {
                        OFFSET	 0.00	0.00	 0.749999965609858
                    }
                }   
			}
		}
	}
}
MOTION 
Frames:	10 
Frame Time: 0.02 
  3.2407598876953125 7.613250122070313 6.064840087890625 -9.30213 52.2988 -708.449 7.12005 0.916568 -3.25063 -0.791657 13.2183 -3.96329 25.2318 70.8605 -29.02 11.1792 -61.3336 34.4596 -98.77526 -10.6638 -4.94401 45.1046 39.145 -75.6588 0.0 139.019 0.0 44.4781 -2.91393 5.84225 0.0 0.0 0.0 0.0 0.0 0.0 103.3761 -11.4431 6.35775 -35.7877 30.5438 54.9475 0.0 139.197 0.0 -60.2854 12.4845 -6.82633 0.0 0.0 0.0 0.0 0.0 0.0 -0.562443 -42.2847 -10.9654 0.0 17.805 0.0 -3.25781 38.436897 -5.23947 0.0 -29.1975 0.0 7.28008 -40.9925 6.345 0.0 12.6764 0.0 19.5631 39.6748 -6.54341 0.0 -28.768799 0.0 
  3.239360046386719 7.609010009765625 6.065339965820312 -9.29338 52.3208 -708.396 7.11286 0.892929 -3.2241 -0.803158 13.2295 -3.93614 25.6947 70.8222 -29.5768 11.136 -61.2146 34.5645 -98.76628 -10.689 -5.04283 44.904 39.0896 -75.4461 0.0 139.074 0.0 44.2995 -2.93552 5.88055 0.0 0.0 0.0 0.0 0.0 0.0 103.414 -11.4559 6.45 -35.66 30.2245 54.8249 0.0 139.282 0.0 -59.818 12.4571 -6.92376 0.0 0.0 0.0 0.0 0.0 0.0 -0.796823 -42.3756 -11.1088 0.0 17.7963 0.0 -3.29318 38.5213 -5.54565 0.0 -29.152 0.0 7.43338 -41.0717 6.70059 0.0 12.679 0.0 19.3159 40.1027 -6.43033 0.0 -29.0445 0.0 
  3.238900146484375 7.607249755859375 6.066060180664063 -9.25239 52.4151 -708.424 7.05918 0.843299 -3.16115 -0.739227 13.2723 -3.86984 26.0332 70.9661 -29.9132 11.2162 -61.3899 34.6845 -98.6986 -10.763 -5.12673 44.5001 39.1452 -75.2162 0.0 139.226 0.0 43.9923 -2.95447 5.9044 0.0 0.0 0.0 0.0 0.0 0.0 103.4074 -11.5335 6.54132 -35.5513 30.0159 54.9188 0.0 139.365 0.0 -59.3196 12.3947 -6.93106 0.0 0.0 0.0 0.0 0.0 0.0 -1.01804 -42.4904 -11.1312 0.0 17.6658 0.0 -3.33581 38.631798 -5.63853 0.0 -29.1014 0.0 7.61382 -41.2312 6.9243 0.0 12.7575 0.0 19.4941 40.373802 -6.79972 0.0 -29.0791 0.0 
  3.2390899658203125 7.605579833984375 6.067979736328125 -9.14935 52.4319 -708.444 7.01772 0.824086 -3.12819 -0.733582 13.3272 -3.8363 26.3881 70.9938 -30.3293 11.127 -61.3115 34.7063 -98.68981 -10.7627 -5.08819 44.3043 39.1165 -75.0501 0.0 139.283 0.0 43.9246 -3.08462 5.86241 0.0 0.0 0.0 0.0 0.0 0.0 103.4579 -11.4698 6.46746 -35.5357 29.6749 55.0945 0.0 139.404 0.0 -59.0086 12.3123 -6.79251 0.0 0.0 0.0 0.0 0.0 0.0 -1.32031 -42.5156 -11.1363 0.0 17.5544 0.0 -3.43983 38.6885 -5.45089 0.0 -29.0929 0.0 7.69235 -41.3394 6.50349 0.0 13.0657 0.0 19.4203 40.2866 -7.2325 0.0 -28.744 0.0 
  3.2395401000976562 7.604539794921875 6.068870239257812 -9.08053 52.4093 -708.441 7.00206 0.844637 -3.09403 -0.726398 13.4291 -3.8012 26.7937 70.9702 -30.8143 11.0899 -61.2716 34.8235 -98.69704 -10.8246 -5.09947 44.277 39.1795 -74.9933 0.0 139.271 0.0 43.836 -3.19983 5.91685 0.0 0.0 0.0 0.0 0.0 0.0 103.4935 -11.449 6.49311 -35.5075 29.4887 55.2701 0.0 139.394 0.0 -58.6748 12.203 -6.71918 0.0 0.0 0.0 0.0 0.0 0.0 -1.5648 -42.6102 -10.8102 0.0 17.6629 0.0 -3.53608 38.7439 -5.28592 0.0 -29.0998 0.0 7.73828 -41.4537 5.9498 0.0 13.4758 0.0 19.2365 40.3406 -7.44543 0.0 -28.7717 0.0 
  3.2405099487304687 7.60572998046875 6.067659912109375 -9.11366 52.414 -708.398 7.06443 0.896832 -3.01698 -0.750824 13.3741 -3.72175 26.6812 70.9277 -30.7076 11.0727 -61.1264 34.643 -98.70842 -10.8059 -5.08591 44.3009 39.312 -74.8741 0.0 139.184 0.0 43.936 -3.19112 5.98824 0.0 0.0 0.0 0.0 0.0 0.0 103.5279 -11.3783 6.40263 -35.5693 29.2909 55.4527 0.0 139.377 0.0 -58.6623 12.0704 -6.33239 0.0 0.0 0.0 0.0 0.0 0.0 -1.71816 -42.7939 -10.5638 0.0 17.8576 0.0 -3.49212 38.7716 -5.2588 0.0 -28.9844 0.0 7.86684 -41.5918 5.75354 0.0 13.8154 0.0 18.8386 40.427002 -7.2874 0.0 -28.4827 0.0 
  3.240270080566406 7.6075 6.067579956054687 -9.12553 52.4351 -708.405 7.10305 0.922377 -2.92581 -0.785342 13.4631 -3.6278 26.4175 71.1312 -30.2849 11.4243 -61.3403 34.531 -98.71549 -10.8518 -5.12775 44.3841 39.4417 -74.9468 0.0 139.166 0.0 44.0373 -3.14292 5.94033 0.0 0.0 0.0 0.0 0.0 0.0 103.5708 -11.4419 6.37039 -35.6405 29.2507 55.6795 0.0 139.352 0.0 -58.551 12.1737 -6.80053 0.0 0.0 0.0 0.0 0.0 0.0 -1.78154 -42.9512 -10.3057 0.0 17.9537 0.0 -3.34236 38.7975 -5.4679 0.0 -29.014301 0.0 8.02487 -41.6464 5.97694 0.0 13.9528 0.0 18.3869 40.5125 -7.07744 0.0 -28.8297 0.0 
  3.2386199951171877 7.609409790039063 6.06864013671875 -9.1401 52.4556 -708.422 7.08121 0.89844 -2.85979 -0.762944 13.4804 -3.55917 26.4678 70.9207 -30.4451 11.0888 -60.866 34.4904 -98.66138 -10.7358 -5.04205 44.3411 39.4622 -74.8603 0.0 139.167 0.0 43.8732 -3.17095 6.39206 0.0 0.0 0.0 0.0 0.0 0.0 103.5356 -11.3231 6.26052 -35.5872 29.2793 55.6753 0.0 139.302 0.0 -58.5148 12.2667 -6.93189 0.0 0.0 0.0 0.0 0.0 0.0 -1.79288 -43.0462 -10.0983 0.0 17.9451 0.0 -3.32591 38.8311 -5.53885 0.0 -29.126 0.0 8.23462 -41.5813 6.44049 0.0 13.887 0.0 18.8866 40.350998 -7.70981 0.0 -28.876701 0.0 
  3.237909851074219 7.610599975585938 6.070260009765625 -9.04596 52.4346 -708.489 6.9993 0.904289 -2.8525 -0.711401 13.5149 -3.55215 26.587 71.0608 -30.5682 10.8629 -60.8222 34.3583 -98.636 -10.6949 -4.89035 44.375 39.4521 -74.9299 0.0 139.157 0.0 43.8165 -3.2192 6.51689 0.0 0.0 0.0 0.0 0.0 0.0 103.4828 -11.2115 6.12225 -35.571 29.3943 55.6165 0.0 139.243 0.0 -58.5835 12.2201 -6.80813 0.0 0.0 0.0 0.0 0.0 0.0 -1.90134 -43.0301 -9.96441 0.0 17.8876 0.0 -3.22375 38.740997 -5.41388 0.0 -29.062 0.0 8.2993 -41.4636 6.43328 0.0 13.9118 0.0 19.2445 40.1268 -8.3609 0.0 -28.8605 0.0 
  3.238190002441406 7.6118701171875 6.071209716796875 -8.92169 52.4262 -708.503 6.93523 0.905604 -2.88025 -0.715035 13.502 -3.58266 26.2174 71.3125 -30.0685 10.7815 -60.7529 33.9337 -98.61835 -10.6606 -4.81022 44.4209 39.5336 -74.9925 0.0 139.081 0.0 43.388 -3.25536 7.65982 0.0 0.0 0.0 0.0 0.0 0.0 103.471 -11.1181 6.04276 -35.5726 29.6259 55.4986 0.0 139.14 0.0 -58.7826 12.2532 -6.95812 0.0 0.0 0.0 0.0 0.0 0.0 -2.14131 -43.0383 -10.1477 0.0 17.8861 0.0 -3.39532 38.735397 -5.14568 0.0 -29.0511 0.0 8.22626 -41.4476 5.9406 0.0 14.1659 0.0 19.2353 39.9567 -8.60735 0.0 -28.8768 0.0 
